<svg xmlns="http://www.w3.org/2000/svg" xmlns:xlink="http://www.w3.org/1999/xlink" width="500" zoomAndPan="magnify" viewBox="0 0 375 374.999991" height="500" preserveAspectRatio="xMidYMid meet" version="1.0"><defs><g/><clipPath id="c54bb66ef4"><path d="M 11.304688 137.972656 L 173.304688 137.972656 L 173.304688 239.222656 L 11.304688 239.222656 Z M 11.304688 137.972656 " clip-rule="nonzero"/></clipPath></defs><g clip-path="url(#c54bb66ef4)"><path fill="#000000" d="M 166.914062 217.894531 L 95.679688 180.261719 L 95.679688 175.511719 C 95.707031 175.503906 95.738281 175.496094 95.773438 175.488281 C 106.996094 172.707031 114.527344 165.71875 114.527344 156.730469 C 114.527344 146.371094 106.128906 137.972656 95.773438 137.972656 C 86.207031 137.972656 77.890625 144.972656 77.070312 154.355469 C 77.042969 154.496094 77.03125 154.644531 77.03125 154.792969 C 77.03125 154.8125 77.023438 154.828125 77.023438 154.847656 C 77.023438 156.714844 78.539062 158.222656 80.402344 158.222656 C 82.265625 158.222656 83.777344 156.714844 83.777344 154.847656 L 83.796875 154.847656 C 84.070312 151.929688 85.488281 149.835938 86.734375 148.53125 C 89.039062 146.109375 92.335938 144.722656 95.773438 144.722656 C 102.390625 144.722656 107.777344 150.109375 107.777344 156.730469 C 107.777344 159.257812 106.722656 161.574219 104.636719 163.613281 C 102.199219 166 98.574219 167.839844 94.148438 168.933594 C 94.148438 168.933594 89.023438 170.515625 88.933594 170.546875 L 88.933594 171.722656 L 88.929688 171.722656 L 88.929688 180.261719 L 17.703125 217.894531 C 13.882812 219.863281 11.304688 223.5625 11.304688 227.804688 C 11.304688 234.113281 17.007812 239.222656 24.035156 239.222656 C 24.164062 239.222656 24.417969 239.222656 24.417969 239.222656 L 160.199219 239.222656 C 160.199219 239.222656 160.453125 239.222656 160.582031 239.222656 C 167.609375 239.222656 173.304688 234.113281 173.304688 227.804688 C 173.304688 223.5625 170.734375 219.863281 166.914062 217.894531 Z M 160.582031 232.46875 L 24.035156 232.46875 C 20.800781 232.46875 18.058594 230.335938 18.058594 227.804688 C 18.058594 226.242188 19.082031 224.777344 20.796875 223.886719 L 20.828125 223.878906 L 20.859375 223.859375 L 92.300781 186.113281 L 163.761719 223.859375 L 163.789062 223.878906 L 163.820312 223.886719 C 165.535156 224.777344 166.558594 226.242188 166.558594 227.804688 C 166.558594 230.335938 163.820312 232.46875 160.582031 232.46875 Z M 160.582031 232.46875 " fill-opacity="1" fill-rule="nonzero"/></g><g fill="#000000" fill-opacity="1"><g transform="translate(261.874723, 237.822963)"><g><path d="M 54.640625 0.78125 C 45.578125 0.78125 37.40625 -1.222656 30.125 -5.234375 C 22.851562 -9.242188 17.144531 -14.796875 13 -21.890625 C 8.863281 -28.992188 6.796875 -36.945312 6.796875 -45.75 C 6.796875 -54.5625 8.863281 -62.515625 13 -69.609375 C 17.144531 -76.710938 22.878906 -82.269531 30.203125 -86.28125 C 37.523438 -90.289062 45.71875 -92.296875 54.78125 -92.296875 C 61.570312 -92.296875 67.84375 -91.160156 73.59375 -88.890625 C 79.351562 -86.628906 84.238281 -83.320312 88.25 -78.96875 L 82.09375 -72.8125 C 74.945312 -80.050781 65.929688 -83.671875 55.046875 -83.671875 C 47.804688 -83.671875 41.222656 -82.015625 35.296875 -78.703125 C 29.367188 -75.390625 24.726562 -70.859375 21.375 -65.109375 C 18.019531 -59.359375 16.34375 -52.90625 16.34375 -45.75 C 16.34375 -38.601562 18.019531 -32.15625 21.375 -26.40625 C 24.726562 -20.65625 29.367188 -16.125 35.296875 -12.8125 C 41.222656 -9.5 47.804688 -7.84375 55.046875 -7.84375 C 66.023438 -7.84375 75.039062 -11.503906 82.09375 -18.828125 L 88.25 -12.6875 C 84.238281 -8.320312 79.332031 -4.984375 73.53125 -2.671875 C 67.738281 -0.367188 61.441406 0.78125 54.640625 0.78125 Z M 54.640625 0.78125 "/></g></g></g><path stroke-linecap="butt" transform="matrix(0.000000000000000046, -0.748836, 0.75, 0.000000000000000046, 211.996162, 262.770247)" fill="none" stroke-linejoin="miter" d="M 0.000955476 2.499909 L 191.303059 2.499909 " stroke="#000000" stroke-width="5" stroke-opacity="1" stroke-miterlimit="4"/></svg>